<?xml version="1.0" standalone="no"?>
<!DOCTYPE svg PUBLIC "-//W3C//DTD SVG 20010904//EN"
 "http://www.w3.org/TR/2001/REC-SVG-20010904/DTD/svg10.dtd">
<svg version="1.0" xmlns="http://www.w3.org/2000/svg"
 width="640.000000pt" height="640.000000pt" viewBox="0 0 640.000000 640.000000"
 preserveAspectRatio="xMidYMid meet">

<g transform="translate(0.000000,640.000000) scale(0.100000,-0.100000)"
fill="#000000" stroke="none">
<path d="M0 3200 l0 -3200 3200 0 3200 0 0 3200 0 3200 -3200 0 -3200 0 0
-3200z m3308 2552 c37 -20 78 -43 92 -50 14 -7 36 -22 50 -33 l25 -21 -35 20
c-204 115 -204 115 -233 101 -21 -10 -21 -10 -3 5 27 21 27 21 104 -22z m-138
-7 c-7 -8 -16 -15 -19 -15 -4 0 -95 -47 -202 -105 -107 -58 -204 -108 -216
-111 -13 -4 -23 -10 -23 -15 0 -5 -362 -9 -857 -9 l-858 0 -128 -126 c-73 -71
-127 -133 -126 -142 3 -34 -1 -135 -6 -131 -2 3 -7 41 -10 84 l-5 80 45 48
c42 45 55 67 38 67 -4 0 -20 -12 -35 -27 -15 -15 -28 -21 -28 -15 0 12 39 53
147 155 l62 57 913 0 913 0 140 76 c77 42 165 91 195 109 61 37 79 43 60 20z
m86 -4 c5 -5 128 -74 274 -153 146 -80 317 -174 380 -210 63 -36 138 -78 165
-93 68 -37 128 -71 205 -115 36 -20 130 -74 210 -120 334 -191 427 -244 460
-265 19 -12 68 -41 108 -64 41 -24 71 -45 68 -48 -3 -3 -17 4 -33 14 -15 11
-68 42 -118 68 -49 27 -118 66 -153 87 -34 21 -65 38 -67 38 -3 0 -49 25 -103
57 -53 31 -124 72 -157 91 -33 19 -80 46 -105 60 -25 14 -151 85 -280 157
-324 182 -786 438 -837 464 l-43 21 -77 -44 c-76 -42 -123 -69 -248 -136 -33
-18 -94 -52 -135 -75 -41 -24 -149 -83 -240 -132 -208 -113 -281 -153 -670
-371 -19 -10 -63 -36 -97 -56 -34 -20 -64 -36 -67 -36 -4 0 -23 -11 -44 -24
-20 -13 -84 -49 -142 -81 -58 -32 -116 -66 -130 -75 -28 -18 -80 -41 -80 -36
0 6 76 54 157 99 99 55 343 194 363 206 55 35 573 322 663 368 40 20 74 39 77
42 3 4 30 19 60 35 30 16 71 38 90 49 58 33 321 177 389 214 35 19 78 43 95
54 35 21 47 23 62 10z m287 -121 c58 -33 57 -41 -1 -10 -47 24 -69 40 -59 40
4 0 31 -13 60 -30z m121 -65 c21 -14 130 -16 955 -15 l931 0 102 -101 c57 -55
96 -99 88 -96 -8 2 -26 8 -39 12 -18 5 -12 -5 28 -46 l51 -54 -7 -65 c-10
-104 -22 -115 -22 -21 l-1 84 -122 116 -121 116 -851 6 c-509 3 -869 9 -896
15 -41 10 -82 28 -120 53 -24 17 -1 12 24 -4z m-383 -12 c29 -22 35 -25 224
-129 83 -45 184 -101 225 -124 41 -23 109 -60 150 -82 41 -23 116 -64 165 -92
50 -28 108 -61 130 -73 22 -13 67 -37 100 -54 33 -17 71 -39 85 -49 14 -9 50
-30 80 -47 90 -49 317 -177 435 -245 l110 -64 -1 -159 c-1 -88 -3 -266 -4
-395 -1 -135 -5 -224 -10 -210 -4 14 -8 19 -9 12 -1 -7 -5 -11 -10 -8 -5 4
-12 0 -14 -6 -3 -7 -6 141 -6 329 l-1 342 -52 29 c-29 17 -152 80 -273 142
-121 62 -247 127 -280 145 -210 114 -566 305 -571 305 -4 0 -306 159 -380 200
-21 12 -60 34 -88 48 l-49 26 -141 -72 c-78 -40 -260 -134 -406 -210 -385
-200 -437 -227 -738 -376 -150 -75 -278 -136 -285 -136 -19 1 21 27 98 66 84
43 94 51 72 60 -22 8 -12 25 11 18 14 -5 14 -4 3 4 -8 6 -19 9 -25 8 -6 -1 -1
2 12 8 12 5 22 13 22 18 0 4 7 8 16 8 8 0 13 4 10 9 -3 5 -28 -3 -55 -17 -32
-17 -45 -29 -38 -34 7 -5 1 -7 -13 -6 -16 2 -24 -2 -22 -10 1 -8 -2 -11 -7 -7
-9 5 -156 -68 -171 -84 -3 -3 -11 -7 -19 -9 -8 -2 -27 -12 -43 -23 -16 -11
-34 -19 -40 -17 -14 5 45 41 267 163 83 46 184 102 225 125 71 40 492 272 865
476 94 51 217 119 275 152 58 33 115 61 126 61 12 1 32 -7 45 -16z m-33 -276
c2 -12 -3 -17 -17 -17 -15 0 -21 6 -21 21 0 25 33 22 38 -4z m-9 -177 c0 -136
2 -150 27 -150 56 0 117 -71 120 -139 l2 -46 78 -43 c44 -24 122 -67 174 -94
52 -28 160 -88 240 -133 143 -81 218 -122 375 -205 44 -23 101 -56 128 -72
l47 -30 0 -224 0 -224 -30 0 -30 0 0 128 c0 145 -7 290 -15 302 -3 5 -67 42
-143 83 -75 41 -225 123 -332 182 -107 59 -260 141 -340 182 -80 41 -149 79
-155 84 -14 13 -41 11 -54 -5 -7 -8 -29 -23 -50 -33 -34 -17 -43 -18 -77 -6
-21 7 -50 25 -65 39 l-27 26 -193 -103 c-107 -56 -261 -139 -344 -184 -82 -45
-213 -115 -290 -155 -77 -40 -153 -83 -170 -95 l-30 -23 0 -208 0 -209 -30 0
-30 0 0 224 0 224 220 119 c121 66 292 159 380 208 88 48 210 113 270 145 197
103 192 98 193 151 3 57 38 106 93 128 l39 16 0 141 c0 84 4 138 9 134 5 -3
10 -64 10 -135z m-2008 58 c8 -15 6 -26 -7 -46 -18 -28 -17 11 -23 -865 -1
-103 -5 -156 -11 -152 -6 4 -10 182 -10 501 0 434 -2 498 -16 519 -18 28 -11
62 14 68 25 5 41 -3 53 -25z m1815 -4 c-13 -9 -16 -35 -16 -150 l0 -139 -92
-47 c-193 -99 -460 -239 -642 -337 -104 -55 -193 -101 -198 -101 -23 0 0 18
57 45 l65 30 0 128 c0 70 -2 127 -5 127 -3 0 -33 -14 -66 -31 -34 -17 -63 -28
-66 -26 -4 5 71 47 267 149 36 19 175 94 310 167 135 74 271 147 302 164 31
17 55 34 52 38 -7 12 20 17 34 6 11 -9 11 -13 -2 -23z m394 -117 l0 -153 113
-58 c61 -32 116 -63 122 -67 18 -17 -24 -9 -57 10 -18 11 -67 38 -108 60 l-75
40 -3 140 c-1 83 -7 141 -12 141 -6 0 -10 9 -10 20 0 11 7 20 15 20 13 0 15
-24 15 -153z m2030 124 c5 -11 10 -27 10 -36 0 -9 20 -35 45 -57 l45 -40 0
-389 c0 -253 -4 -389 -10 -389 -6 0 -10 133 -10 379 l0 378 -51 46 c-28 25
-57 43 -64 41 -25 -10 -55 15 -55 45 0 36 6 41 46 41 23 0 37 -6 44 -19z
m-1840 -51 c11 -11 20 -31 20 -44 0 -21 20 -35 143 -102 261 -142 332 -184
311 -184 -11 0 -24 4 -30 9 -5 5 -58 35 -119 67 -60 31 -114 60 -120 64 -18
13 -202 110 -209 110 -3 0 -6 -42 -7 -92 0 -51 -4 -102 -9 -113 -6 -13 -9 20
-9 93 -1 91 -4 112 -15 112 -20 0 -46 39 -39 59 7 20 32 41 50 41 7 0 22 -9
33 -20z m-2750 -402 c0 -161 -4 -238 -10 -228 -13 20 -13 470 0 470 6 0 10
-87 10 -242z m5001 -1597 c-9 -46 -9 -46 -11 29 -3 67 -4 70 -9 30 -11 -79
-18 638 -11 1150 3 272 7 479 9 460 l3 -35 9 40 c4 22 9 65 11 95 2 30 4 -345
5 -834 2 -493 -1 -909 -6 -935z m-5151 1775 c0 -3 -4 -8 -10 -11 -5 -3 -10 -1
-10 4 0 6 5 11 10 11 6 0 10 -2 10 -4z m-30 -29 c0 -2 -14 -16 -31 -33 -26
-24 -30 -25 -20 -7 11 22 51 53 51 40z m-59 -69 c18 -22 18 -53 18 -728 0
-679 -4 -810 -25 -765 -7 16 -10 7 -15 -40 -3 -33 -6 303 -7 748 -1 444 1 807
4 807 3 0 14 -10 25 -22z m3181 -45 c10 -9 18 -28 18 -42 0 -30 4 -32 140
-104 52 -28 115 -63 140 -78 l45 -28 3 129 c1 72 5 130 8 130 15 0 154 -75
154 -83 0 -10 3 -11 -77 31 -34 17 -65 32 -68 32 -3 0 -5 -54 -5 -120 l0 -119
95 -53 c52 -29 95 -56 95 -61 0 -7 -94 39 -175 86 -22 13 -114 62 -205 109
-144 74 -170 84 -204 80 -30 -3 -42 0 -53 14 -43 58 35 126 89 77z m-1992 -31
c-8 -2 -19 -8 -25 -12 -5 -5 -15 -3 -21 4 -9 9 -3 12 25 13 20 0 29 -2 21 -5z
m3838 -44 c2 -22 -1 -38 -7 -38 -7 0 -11 -69 -12 -207 -1 -115 -4 -255 -8
-313 -6 -98 -6 -91 -13 115 -5 121 -8 259 -8 306 0 73 -3 89 -20 104 -38 35
-17 78 35 73 27 -3 30 -7 33 -40z m-3953 22 c-3 -5 -11 -10 -16 -10 -6 0 -7 5
-4 10 3 6 11 10 16 10 6 0 7 -4 4 -10z m55 0 c0 -5 -4 -10 -10 -10 -5 0 -10 5
-10 10 0 6 5 10 10 10 6 0 10 -4 10 -10z m-488 -32 c-7 -7 -13 -30 -14 -52
l-1 -41 -4 38 c-4 34 9 67 25 67 3 0 1 -5 -6 -12z m3180 -46 c24 -16 106 -62
183 -101 77 -40 145 -78 151 -84 9 -9 10 -67 5 -217 l-8 -205 -1 201 c-2 148
-5 204 -14 212 -17 13 -183 102 -192 102 -3 0 -6 -42 -6 -93 0 -91 0 -93 31
-120 28 -24 31 -32 25 -65 -3 -20 -7 -100 -8 -177 l-2 -140 -6 135 -5 135 -28
-3 c-46 -6 -77 22 -77 67 0 30 6 44 25 58 23 17 24 25 26 117 l2 99 -55 33
c-31 17 -64 34 -74 36 -10 2 -20 11 -22 21 -5 23 0 22 50 -11z m-25 -219 c-2
-38 -3 -7 -3 67 0 74 1 105 3 68 2 -38 2 -98 0 -135z m-2531 162 c-22 -13 -83
-48 -137 -77 l-99 -53 -1 -115 c-1 -63 -5 -158 -9 -210 -6 -79 -7 -59 -8 120
l-2 216 63 32 c34 17 96 50 137 72 82 44 118 54 56 15z m133 -57 l0 -83 -85
-40 c-47 -22 -95 -45 -107 -50 -22 -10 -22 -15 -27 -325 -3 -214 -7 -294 -12
-251 -5 35 -8 178 -8 318 l0 255 110 51 110 52 0 78 c0 44 4 77 10 77 6 0 10
-34 9 -82z m1219 -453 c-3 -511 -2 -525 16 -525 11 0 35 -12 54 -27 34 -25 36
-26 76 -11 l41 15 1 167 c1 92 3 168 5 170 2 1 31 18 64 36 33 18 74 44 92 57
17 12 46 23 63 23 24 0 33 6 41 27 11 30 45 63 65 63 7 0 18 9 24 20 6 11 17
20 25 20 8 0 15 -9 15 -20 0 -11 6 -20 14 -20 46 0 87 -77 72 -136 -11 -42
-64 -84 -107 -84 -48 0 -101 36 -113 78 -10 35 -43 44 -66 17 -7 -8 -16 -15
-20 -15 -4 0 -39 -18 -76 -40 -52 -30 -71 -47 -75 -68 -4 -15 -7 -90 -8 -167
l-1 -140 -40 -25 c-38 -23 -40 -27 -40 -74 0 -37 -6 -57 -26 -83 -92 -120
-264 -59 -264 95 0 35 -4 52 -13 52 -7 0 -29 11 -50 25 l-37 26 0 94 0 95 -52
27 c-28 16 -70 38 -92 50 l-40 21 -15 -20 c-13 -19 -22 -20 -116 -16 -85 4
-111 9 -151 30 -37 19 -50 32 -52 52 -2 18 1 26 12 26 9 0 13 -6 10 -14 -3 -8
10 -25 32 -42 33 -26 46 -29 133 -32 81 -4 99 -1 110 12 8 9 12 18 10 19 -2 1
-18 12 -34 23 -63 44 -113 64 -144 58 -23 -5 -35 -1 -55 19 -15 15 -26 38 -26
52 0 34 44 75 82 75 54 0 100 -74 66 -108 -6 -6 -10 -13 -7 -15 16 -14 101
-68 134 -87 22 -12 79 -45 128 -72 l87 -50 0 -99 c0 -92 1 -99 20 -99 19 0 20
7 20 198 0 108 -3 221 -7 250 l-6 53 -133 75 c-120 67 -137 74 -170 68 -25 -5
-32 -9 -22 -15 9 -6 2 -9 -20 -9 -20 0 -31 4 -27 10 3 6 1 10 -6 10 -23 0 -49
33 -49 62 0 39 40 78 80 78 38 0 80 -39 80 -74 0 -22 20 -37 151 -113 l151
-88 -7 -257 -6 -258 25 -11 c22 -10 29 -8 56 15 17 14 42 26 54 26 15 0 23 6
23 18 -1 9 1 35 3 57 3 39 3 38 10 -15 4 -36 7 6 8 123 2 125 -1 177 -9 177
-8 0 -9 19 -4 63 8 69 10 148 6 417 -4 223 -4 210 14 210 14 0 15 -61 13 -525z
m-217 425 c26 -14 25 -57 -1 -65 -18 -6 -20 -15 -20 -78 l1 -72 90 -67 c49
-38 94 -68 99 -68 6 0 10 -9 10 -20 0 -11 -3 -20 -6 -20 -7 0 -186 150 -196
165 -4 5 -8 43 -8 83 0 55 -4 74 -15 78 -21 8 -19 51 3 63 21 13 20 13 43 1z
m454 -15 c16 -15 25 -35 25 -56 0 -33 -24 -69 -46 -69 -7 0 -15 -20 -19 -50
-6 -46 -11 -54 -63 -94 -79 -60 -112 -80 -112 -68 0 5 32 33 70 63 70 53 70
53 70 101 0 35 -4 48 -14 48 -21 0 -46 40 -46 73 0 38 40 77 80 77 19 0 40 -9
55 -25z m1235 -360 c0 -183 4 -285 10 -285 15 0 12 -46 -4 -59 -11 -9 -20 -10
-35 -1 -24 12 -28 48 -6 56 13 5 15 47 15 290 0 183 4 284 10 284 6 0 10 -102
10 -285z m-2700 259 c0 -4 -29 -34 -64 -68 l-65 -61 -6 -224 c-3 -124 -8 -227
-10 -230 -3 -2 -5 101 -5 229 l0 233 68 63 c63 60 82 73 82 58z m1780 -84 c23
-23 26 -72 6 -89 -19 -16 -74 -23 -81 -10 -19 30 -128 -15 -324 -133 -35 -22
-66 -37 -69 -33 -3 3 3 12 14 20 31 24 307 182 329 189 12 3 21 16 22 28 4 47
67 64 103 28z m-1380 -330 c0 -6 -58 -10 -155 -10 -97 0 -155 4 -155 10 0 6
58 10 155 10 97 0 155 -4 155 -10z m1900 0 c0 -6 -64 -10 -171 -10 -111 0
-168 3 -164 10 4 6 72 10 171 10 103 0 164 -4 164 -10z m-3356 -36 c22 -22 20
-71 -4 -91 -14 -13 -20 -30 -21 -63 0 -25 -4 -63 -8 -85 -7 -37 -8 -33 -15 45
-7 65 -13 88 -27 98 -34 24 -39 46 -19 80 22 36 67 44 94 16z m3011 -67 c-26
-40 -87 -83 -145 -102 -30 -10 -98 -35 -150 -57 -103 -42 -114 -44 -108 -26 3
7 11 13 19 13 17 0 120 35 134 45 6 4 44 20 85 34 52 19 88 40 122 72 53 49
66 56 43 21z m-2165 -188 c0 -26 -3 -30 -22 -27 -26 3 -37 36 -16 49 25 17 38
9 38 -22z m1044 -41 c8 -13 8 -23 0 -35 -16 -26 -43 -28 -68 -4 -18 17 -37 21
-111 24 l-90 3 96 2 c77 2 98 5 103 18 8 20 55 15 70 -8z m1504 -508 c175 0
239 -28 283 -125 16 -34 19 -67 19 -218 0 -158 -2 -182 -20 -217 -23 -46 -63
-88 -94 -100 -29 -11 -120 -11 -185 -1 -35 6 -51 5 -51 -3 0 -6 -5 -3 -11 7
-8 14 -24 17 -86 17 -56 0 -74 -3 -70 -12 3 -9 -9 -14 -39 -15 -43 -2 -43 -2
-47 35 -3 33 -4 32 -7 -13 l-3 -50 -7 50 c-5 28 -9 65 -9 83 l-1 32 100 0 c93
0 100 -1 100 -20 0 -19 6 -20 98 -19 112 0 161 14 179 49 16 32 17 254 2 299
-17 49 -52 61 -174 61 l-105 0 0 -145 0 -145 -100 0 -100 0 0 350 0 349 47 58
c25 32 71 87 102 122 l56 65 3 -247 2 -247 118 0z m-2928 340 c0 -5 -7 -10
-15 -10 -8 0 -15 5 -15 10 0 6 7 10 15 10 8 0 15 -4 15 -10z m90 0 c0 -5 -11
-10 -24 -10 -14 0 -28 5 -31 10 -4 6 7 10 24 10 17 0 31 -4 31 -10z m280 0 c0
-6 -47 -10 -120 -10 -73 0 -120 4 -120 10 0 6 47 10 120 10 73 0 120 -4 120
-10z m635 0 c-256 -11 -503 -11 -510 0 -4 7 109 9 332 8 289 -1 315 -3 178 -8z
m2275 0 c0 -6 -48 -10 -125 -10 -77 0 -125 4 -125 10 0 6 48 10 125 10 77 0
125 -4 125 -10z m270 0 c0 -6 -40 -10 -100 -10 -60 0 -100 4 -100 10 0 6 40
10 100 10 60 0 100 -4 100 -10z m65 0 c3 -5 -1 -10 -9 -10 -9 0 -16 5 -16 10
0 6 4 10 9 10 6 0 13 -4 16 -10z m-3449 -385 c41 -132 103 -328 139 -436 36
-108 65 -202 65 -208 0 -6 -12 -10 -27 -10 -22 1 -24 3 -7 6 20 4 21 7 11 34
-11 29 -12 29 -102 31 l-90 2 88 3 c48 2 87 8 87 13 0 13 -32 19 -115 23 -67
3 -67 3 18 5 117 3 115 22 -2 22 -50 0 -93 5 -96 10 -4 6 25 10 79 10 51 0 86
4 86 10 0 6 -37 10 -90 10 -116 0 -118 18 -2 23 l87 3 -92 2 c-115 2 -127 22
-13 22 53 0 80 4 80 11 0 12 -55 10 -322 -7 -114 -8 -134 -3 -118 26 11 20 18
21 136 18 68 -2 124 -2 124 -1 0 6 -133 370 -139 381 -6 10 -11 6 -18 -15 -6
-15 -32 -81 -57 -146 -25 -64 -46 -122 -46 -127 0 -6 40 -10 100 -10 93 0 100
-1 100 -20 0 -19 -7 -20 -113 -20 l-113 0 -13 -35 -12 -35 -77 0 c-42 0 -84
-5 -92 -10 -10 -7 12 -10 73 -10 119 0 114 -19 -5 -22 l-93 -2 88 -3 c115 -5
113 -23 -3 -23 -53 0 -90 -4 -90 -10 0 -6 33 -10 80 -10 110 0 104 -19 -7 -22
l-88 -2 83 -3 c108 -5 107 -23 -2 -23 -47 0 -88 -4 -91 -10 -4 -6 23 -10 74
-10 47 0 81 -4 81 -10 0 -6 -35 -10 -85 -10 -108 0 -114 -19 -7 -22 l77 -2
-84 -5 c-54 -4 -86 -10 -89 -18 -2 -9 9 -14 35 -15 l38 -1 -34 -4 c-67 -8 -69
-20 53 312 37 99 99 268 138 375 39 107 76 198 82 203 6 4 67 6 135 5 l125 -3
72 -240z m137 238 c-13 -2 -35 -2 -50 0 -16 2 -5 4 22 4 28 0 40 -2 28 -4z
m1010 0 c-160 -2 -426 -2 -590 0 -164 1 -32 2 292 2 325 0 459 -1 298 -2z
m915 0 c-43 -2 -113 -2 -155 0 -43 1 -8 3 77 3 85 0 120 -2 78 -3z m1165 0
c-83 -2 -223 -2 -310 0 -87 1 -18 3 152 3 171 0 242 -2 158 -3z m667 0 c0 -5
-88 -125 -195 -267 -107 -143 -195 -265 -195 -271 0 -9 84 -126 187 -260 47
-60 64 -87 60 -91 -6 -6 -28 15 -71 69 -17 20 -34 33 -38 31 -5 -3 -6 -10 -3
-15 4 -5 -7 -9 -24 -9 -16 0 -31 -3 -34 -7 -2 -5 -3 -3 -1 3 1 6 -15 16 -36
23 -27 8 -51 28 -85 69 -26 31 -54 61 -62 65 -8 5 -48 11 -89 14 -41 3 -74 8
-74 10 0 3 16 24 35 47 19 24 35 46 35 50 0 6 -100 138 -215 285 -19 24 -35
48 -35 52 0 5 40 9 89 9 l90 0 22 -32 c13 -18 26 -35 29 -38 4 -3 28 -34 54
-70 27 -36 53 -65 59 -65 11 0 56 59 134 175 21 30 41 60 46 65 4 6 33 45 63
88 l55 77 100 0 c54 0 99 -3 99 -7z m-1540 -228 l0 -65 -220 -1 c-121 -1 -224
-3 -230 -4 -5 -1 -14 -3 -20 -4 -5 0 -7 -14 -4 -30 5 -25 3 -29 -26 -35 -60
-11 -120 -7 -127 9 -17 47 72 167 134 181 16 3 33 7 38 9 6 2 110 4 233 4
l222 1 0 -65z m-650 37 c0 -4 -9 -32 -19 -62 -10 -30 -40 -131 -66 -225 l-48
-170 -141 3 c-116 3 -143 6 -153 19 -12 16 -13 16 -13 0 0 -15 -16 -17 -149
-17 l-148 0 -37 138 c-20 75 -45 169 -56 207 -30 108 -31 105 49 105 l68 0 16
-52 c9 -29 34 -118 56 -196 23 -79 45 -151 50 -160 12 -21 7 -33 61 158 22 80
48 169 56 198 13 47 17 52 43 52 32 0 25 17 97 -240 25 -91 50 -169 54 -173 9
-10 15 8 65 193 20 74 40 145 46 158 5 13 9 31 9 42 0 10 6 21 13 23 20 9 147
8 147 -1z m-1310 -227 l0 -225 -42 -1 c-24 -1 -48 -1 -55 0 -6 1 -14 -3 -18
-9 -4 -6 20 -10 69 -10 41 0 78 -4 81 -10 4 -6 -24 -10 -78 -10 l-84 0 -7 31
c-8 42 -8 444 1 452 3 4 35 7 70 7 l63 0 0 -225z m348 -2 l2 -223 -70 0 -70 0
0 225 0 226 68 -3 67 -3 3 -222z m1610 -72 l3 -71 -318 2 -318 3 2 59 c1 33 4
64 6 70 3 8 100 10 313 9 l309 -1 3 -71z m1416 -166 l38 -50 -46 50 c-25 28
-46 54 -46 60 0 11 2 8 54 -60z m-1888 28 c1 -7 2 -26 3 -43 l1 -30 235 0 236
0 -3 -67 -3 -68 -235 -2 c-153 -1 -228 1 -215 8 15 7 11 8 -20 6 -84 -8 -155
72 -155 174 l0 40 78 -3 c52 -2 77 -7 78 -15z m2154 2 c22 -26 8 -50 -30 -50
-25 0 -36 5 -38 18 -5 23 15 47 38 47 10 0 23 -7 30 -15z m-3300 -46 c0 -5
-36 -9 -80 -9 -44 0 -80 4 -80 9 0 14 14 16 90 13 38 -2 70 -8 70 -13z m2649
5 c14 -14 -18 -14 -91 0 l-83 15 85 -5 c47 -3 87 -8 89 -10z m-2144 -4 c-4 -6
-58 -10 -130 -10 -72 0 -126 4 -130 10 -4 6 42 10 130 10 88 0 134 -4 130 -10z
m320 0 c-4 -6 -58 -10 -130 -10 -72 0 -126 4 -130 10 -4 6 42 10 130 10 88 0
134 -4 130 -10z m1028 3 c-29 -2 -77 -2 -105 0 -29 2 -6 3 52 3 58 0 81 -1 53
-3z m696 -14 c64 -11 106 -29 66 -29 -28 1 -145 27 -152 34 -9 9 12 7 86 -5z
m-2549 -19 c0 -6 -85 -10 -235 -10 -150 0 -235 4 -235 10 0 6 85 10 235 10
150 0 235 -4 235 -10z m500 0 c0 -6 -47 -10 -120 -10 -73 0 -120 4 -120 10 0
6 47 10 120 10 73 0 120 -4 120 -10z m320 0 c0 -6 -47 -10 -120 -10 -73 0
-120 4 -120 10 0 6 47 10 120 10 73 0 120 -4 120 -10z m1033 3 c-29 -2 -77 -2
-105 0 -29 2 -6 3 52 3 58 0 81 -1 53 -3z m673 -14 c75 -14 88 -18 81 -25 -9
-9 -167 18 -167 28 0 11 15 10 86 -3z m583 -43 c-2 -2 -13 8 -23 22 l-19 27
24 -22 c12 -12 21 -24 18 -27z m-2624 13 c-7 -10 -157 -12 -192 -3 -49 13 -18
19 87 16 65 -2 108 -7 105 -13z m-505 1 c0 -6 -78 -10 -214 -10 -133 0 -217 4
-221 10 -4 7 70 10 214 10 141 0 221 -4 221 -10z m825 0 c-3 -6 -52 -10 -111
-10 -63 0 -104 4 -104 10 0 6 44 10 111 10 71 0 108 -4 104 -10z m1758 -15
c26 -10 21 -28 -5 -19 -13 4 -52 13 -88 20 l-65 13 70 -4 c39 -2 78 -7 88 -10z
m-2603 -15 c0 -6 -72 -10 -195 -10 -123 0 -195 4 -195 10 0 6 72 10 195 10
123 0 195 -4 195 -10z m510 0 c0 -6 -38 -10 -95 -10 -57 0 -95 4 -95 10 0 6
38 10 95 10 57 0 95 -4 95 -10z m319 -4 c-5 -5 -168 -9 -184 -5 -5 2 33 5 85
8 93 6 108 5 99 -3z m1766 -19 c6 -2 6 -5 0 -8 -14 -8 -166 22 -160 31 3 6
122 -11 160 -23z m-2640 -17 c-25 -11 -215 -11 -275 -1 -31 6 8 9 125 9 103 0
162 -3 150 -8z m472 -3 c-57 -7 -82 -6 -90 2 -8 8 12 11 79 10 l89 -2 -78 -10z
m2106 -3 c26 -3 47 -11 47 -16 0 -6 -10 -8 -22 -4 -13 3 -51 9 -85 13 -35 3
-63 10 -63 15 0 6 17 7 38 4 20 -3 58 -8 85 -12z m-1750 -1 c-24 -2 -62 -2
-85 0 -24 2 -5 4 42 4 47 0 66 -2 43 -4z m2441 -19 c3 -8 2 -12 -4 -9 -6 3
-10 10 -10 16 0 14 7 11 14 -7z m-2739 -4 c-3 -5 -39 -9 -78 -9 -58 1 -65 3
-37 9 54 11 122 11 115 0z m2041 -17 c-6 -6 -136 9 -136 16 0 4 32 3 70 -2 39
-6 69 -12 66 -14z m-3088 10 c-21 -2 -57 -2 -80 0 -24 2 -7 4 37 4 44 0 63 -2
43 -4z m400 0 c-27 -2 -69 -2 -95 0 -27 2 -5 3 47 3 52 0 74 -1 48 -3z m930 0
c-21 -2 -55 -2 -75 0 -21 2 -4 4 37 4 41 0 58 -2 38 -4z m2230 -18 c-3 -3 -9
2 -12 12 -6 14 -5 15 5 6 7 -7 10 -15 7 -18z m-500 -22 c-26 -2 -71 -2 -100 0
-29 2 -8 3 47 3 55 0 79 -1 53 -3z m-3152 -189 c359 -172 811 -402 1044 -530
64 -35 119 -64 123 -64 4 0 7 84 7 188 l0 187 -93 50 c-88 48 -290 155 -370
196 -22 11 -37 23 -34 25 5 6 217 -101 382 -191 55 -30 103 -55 108 -55 4 0 7
33 7 74 0 64 -3 76 -25 100 -14 15 -25 35 -25 46 0 27 27 50 58 50 21 0 33 -9
53 -42 22 -37 43 -52 141 -102 l115 -60 6 -140 c4 -78 7 -171 7 -207 0 -47 4
-70 15 -79 35 -29 -1 -79 -45 -65 -24 8 -26 41 -5 81 12 23 15 68 15 204 0 96
-4 180 -8 186 -14 22 -249 137 -266 131 -13 -5 -16 -22 -16 -99 l0 -93 66 -37
c36 -21 70 -38 75 -38 5 0 9 -46 9 -103 0 -90 2 -105 20 -120 41 -35 7 -92
-40 -67 -22 12 -26 40 -10 56 7 7 10 52 8 114 l-3 104 -55 33 c-30 18 -58 33
-62 33 -5 0 -8 -84 -8 -188 l0 -187 63 -33 c34 -18 120 -64 191 -102 71 -39
133 -70 136 -70 4 0 38 17 76 38 l69 37 3 153 3 153 32 19 c17 11 65 36 105
56 l72 35 0 140 c0 76 -2 139 -4 139 -3 0 -31 -15 -63 -33 -32 -19 -77 -43
-100 -53 -41 -18 -42 -21 -43 -66 0 -26 5 -50 10 -53 16 -10 12 -53 -6 -63
-42 -23 -81 23 -49 58 11 13 20 46 25 97 4 43 8 68 9 56 0 -13 7 -23 15 -23 7
0 57 23 110 51 80 42 96 54 96 74 0 13 5 27 10 30 6 3 10 -3 10 -14 0 -12 2
-21 5 -21 3 0 41 18 85 40 44 22 80 37 80 32 0 -4 -24 -20 -52 -35 -29 -15
-68 -35 -85 -45 l-33 -17 0 -137 c0 -127 1 -137 18 -131 9 4 87 44 172 89 85
45 166 85 180 89 27 7 -168 -103 -292 -166 l-78 -39 0 -139 0 -139 73 38 c257
135 562 291 817 417 441 218 474 233 485 222 5 -6 5 -9 -3 -9 -22 0 -877 -430
-1007 -507 -22 -13 -61 -33 -87 -45 -27 -12 -48 -25 -48 -30 0 -4 -8 -9 -17
-9 -10 -1 40 -7 111 -13 l130 -11 -80 -46 c-43 -25 -142 -81 -219 -124 -77
-43 -160 -90 -185 -105 -25 -15 -76 -44 -115 -65 -38 -21 -74 -41 -80 -45 -32
-23 -147 -80 -162 -80 -19 0 -38 11 -253 135 -74 43 -156 89 -182 103 -27 14
-48 29 -48 33 0 5 -8 9 -19 9 -10 0 -24 7 -31 15 -7 8 -20 16 -29 17 -9 1 38
5 104 8 l120 6 -137 2 c-157 2 -195 18 -51 21 123 2 134 11 17 12 -49 1 -78 3
-64 5 14 3 45 7 70 11 l45 7 -65 7 -65 6 85 1 c63 1 81 -1 70 -9 -13 -9 -12
-10 2 -5 10 3 20 1 23 -4 4 -6 14 -10 23 -10 11 0 5 7 -16 20 -28 17 -50 20
-149 20 -64 0 -114 2 -112 5 3 2 49 5 103 6 53 1 96 2 94 4 -2 1 -59 32 -128
67 -69 36 -165 87 -215 113 -296 156 -596 307 -822 415 -73 35 -133 67 -133
72 0 4 2 8 4 8 2 0 84 -39 182 -86z m3609 -99 c14 -13 25 -29 25 -35 0 -18
-29 -68 -41 -72 -7 -2 -13 -51 -16 -141 -4 -126 -2 -141 17 -171 11 -19 17
-41 14 -50 -9 -22 -51 -31 -70 -15 -16 13 -23 14 -124 19 l-55 3 75 9 c116 14
120 21 120 203 0 104 -3 145 -12 145 -6 0 -20 8 -30 17 -18 16 -22 15 -73 -10
-71 -35 -71 -27 0 13 36 21 57 40 61 56 7 28 39 54 67 54 10 0 29 -11 42 -25z
m-2978 -51 c239 -123 358 -188 361 -196 2 -4 11 -8 20 -9 11 0 13 -2 4 -6 -7
-3 -18 -1 -25 5 -7 5 -115 62 -242 127 -202 103 -275 145 -253 145 4 0 64 -30
135 -66z m2022 52 c-23 -21 -570 -297 -582 -293 -6 2 40 30 103 62 357 181
466 235 474 235 5 0 7 -2 5 -4z m1146 -163 c0 -18 5 -28 15 -28 9 0 15 9 14
24 -1 22 0 22 12 7 16 -22 8 -43 -17 -51 -38 -12 -65 35 -37 63 7 7 12 12 13
12 0 0 1 -12 0 -27z m-4280 -153 c3 -6 17 -7 29 -4 41 10 73 -40 41 -66 -20
-17 -48 -9 -61 18 -6 13 -17 29 -23 35 -6 6 -11 15 -11 19 0 11 18 10 25 -2z
m2822 -56 c-3 -3 -12 -4 -19 -1 -8 3 -5 6 6 6 11 1 17 -2 13 -5z m-17 -34
c-69 -5 -72 -6 -30 -11 35 -4 30 -5 -25 -5 -38 0 -60 2 -47 4 12 2 22 8 22 13
0 5 35 8 78 7 l77 -2 -75 -6z m1524 -92 c22 -35 -27 -74 -59 -48 -20 17 -19
47 3 59 23 14 42 10 56 -11z m-2871 -25 c-7 -2 -19 -2 -25 0 -7 3 -2 5 12 5
14 0 19 -2 13 -5z m-823 -45 l20 -33 -33 -11 c-54 -19 -98 23 -62 60 26 25 53
19 75 -16z m2878 -185 c-36 -37 -61 -40 -228 -26 l-85 8 65 6 c36 4 96 7 134
8 61 1 73 4 98 28 26 24 28 33 28 98 0 103 14 103 18 -1 3 -86 3 -87 -30 -121z
m-3104 125 c17 -27 -5 -54 -40 -50 -16 2 -56 6 -88 9 -67 6 -59 23 12 23 29 0
42 4 42 14 0 30 56 32 74 4z m-447 -124 c10 -26 -14 -64 -40 -64 -41 0 -62 41
-35 68 17 17 67 15 75 -4z m2153 -208 c0 -2 -7 -6 -15 -10 -8 -3 -15 -1 -15 4
0 6 7 10 15 10 8 0 15 -2 15 -4z"/>
<path d="M5608 5430 c12 -11 24 -20 28 -20 4 0 -1 9 -11 20 -10 11 -23 20 -28
20 -6 0 -1 -9 11 -20z"/>
<path d="M5650 5385 c7 -8 20 -15 28 -15 13 0 12 3 -4 15 -25 19 -40 19 -24 0z"/>
<path d="M1900 4810 c-8 -5 -10 -10 -5 -10 6 0 17 5 25 10 8 5 11 10 5 10 -5
0 -17 -5 -25 -10z"/>
<path d="M4961 3864 c0 -11 3 -14 6 -6 3 7 2 16 -1 19 -3 4 -6 -2 -5 -13z"/>
<path d="M2936 5089 c-37 -21 -69 -39 -72 -39 -2 0 -122 -64 -266 -142 -145
-78 -286 -154 -315 -168 l-52 -25 0 -132 -1 -132 48 27 c26 15 90 50 142 76
52 27 100 52 105 56 6 4 116 63 245 130 129 67 238 127 242 133 6 10 1 247 -5
254 -2 1 -33 -16 -71 -38z m-76 -187 c-8 -3 -18 -10 -22 -16 -5 -8 -8 -7 -8 2
0 6 -8 12 -17 13 -15 0 -15 2 2 8 11 4 29 6 40 3 14 -4 16 -7 5 -10z"/>
<path d="M3208 3473 c7 -3 16 -2 19 1 4 3 -2 6 -13 5 -11 0 -14 -3 -6 -6z"/>
<path d="M3000 4430 c0 -5 7 -10 15 -10 8 0 15 5 15 10 0 6 -7 10 -15 10 -8 0
-15 -4 -15 -10z"/>
<path d="M5209 2544 c-6 -42 -4 -61 8 -57 10 4 11 9 2 19 -7 8 -9 18 -5 21 4
4 11 1 16 -7 6 -8 10 -10 10 -4 0 14 -29 40 -31 28z"/>
<path d="M3936 2484 c-4 -14 -5 -28 -3 -31 3 -2 8 8 11 23 4 14 5 28 3 31 -3
2 -8 -8 -11 -23z"/>
<path d="M3707 2453 c18 -2 50 -2 70 0 21 2 7 4 -32 4 -38 0 -55 -2 -38 -4z"/>
<path d="M3843 2453 c15 -2 39 -2 55 0 15 2 2 4 -28 4 -30 0 -43 -2 -27 -4z"/>
<path d="M3500 1819 c-41 -22 -80 -45 -87 -51 -9 -7 -13 -47 -13 -144 0 -74 2
-134 5 -134 9 0 107 51 147 76 l38 24 0 135 c0 74 -3 135 -7 135 -5 0 -42 -19
-83 -41z"/>
<path d="M3928 1643 c7 -3 16 -2 19 1 4 3 -2 6 -13 5 -11 0 -14 -3 -6 -6z"/>
<path d="M3978 1643 c7 -3 16 -2 19 1 4 3 -2 6 -13 5 -11 0 -14 -3 -6 -6z"/>
<path d="M3958 1623 c7 -3 16 -2 19 1 4 3 -2 6 -13 5 -11 0 -14 -3 -6 -6z"/>
<path d="M3753 1593 c37 -2 96 -2 130 0 34 2 4 3 -68 3 -71 0 -99 -1 -62 -3z"/>
<path d="M2840 1546 c0 -2 11 -6 25 -8 13 -3 22 -1 19 3 -5 9 -44 13 -44 5z"/>
<path d="M2738 1493 c17 -2 47 -2 65 0 17 2 3 4 -33 4 -36 0 -50 -2 -32 -4z"/>
<path d="M1751 1551 c-14 -9 -9 -41 8 -41 13 0 23 32 14 41 -5 5 -14 4 -22 0z"/>
</g>
</svg>
